<mxfile host="app.diagrams.net" agent="Mozilla/5.0 (Windows NT 10.0; Win64; x64) AppleWebKit/537.36 (KHTML, like Gecko) Chrome/131.0.0.0 Safari/537.36" version="26.0.5">
  <diagram name="Page-1" id="L-mC_n3aTV4smiocX8SY">
    <mxGraphModel dx="2284" dy="790" grid="1" gridSize="10" guides="1" tooltips="1" connect="1" arrows="1" fold="1" page="1" pageScale="1" pageWidth="850" pageHeight="1100" math="0" shadow="0">
      <root>
        <mxCell id="0" />
        <mxCell id="1" parent="0" />
        <mxCell id="7iJvWOrBqwkIlt1M9rAo-25" value="" style="whiteSpace=wrap;html=1;aspect=fixed;" vertex="1" parent="1">
          <mxGeometry x="80" y="110" width="600" height="600" as="geometry" />
        </mxCell>
        <mxCell id="7iJvWOrBqwkIlt1M9rAo-26" value="User" style="shape=umlActor;verticalLabelPosition=bottom;verticalAlign=top;html=1;outlineConnect=0;" vertex="1" parent="1">
          <mxGeometry x="-40" y="276.5" width="80" height="150" as="geometry" />
        </mxCell>
        <mxCell id="7iJvWOrBqwkIlt1M9rAo-27" value="Admin" style="shape=umlActor;verticalLabelPosition=bottom;verticalAlign=top;html=1;outlineConnect=0;" vertex="1" parent="1">
          <mxGeometry x="740" y="496.5" width="80" height="150" as="geometry" />
        </mxCell>
        <mxCell id="7iJvWOrBqwkIlt1M9rAo-28" value="Add Music To Playlist" style="ellipse;whiteSpace=wrap;html=1;" vertex="1" parent="1">
          <mxGeometry x="180" y="160" width="112" height="57" as="geometry" />
        </mxCell>
        <mxCell id="7iJvWOrBqwkIlt1M9rAo-29" value="" style="endArrow=none;html=1;rounded=0;exitX=0.5;exitY=0.5;exitDx=0;exitDy=0;exitPerimeter=0;entryX=0;entryY=0.5;entryDx=0;entryDy=0;" edge="1" parent="1" source="7iJvWOrBqwkIlt1M9rAo-26" target="7iJvWOrBqwkIlt1M9rAo-28">
          <mxGeometry width="50" height="50" relative="1" as="geometry">
            <mxPoint x="400" y="500" as="sourcePoint" />
            <mxPoint x="450" y="450" as="targetPoint" />
          </mxGeometry>
        </mxCell>
        <mxCell id="7iJvWOrBqwkIlt1M9rAo-30" value="Add Songs To Specific Genre" style="ellipse;whiteSpace=wrap;html=1;" vertex="1" parent="1">
          <mxGeometry x="505" y="496.5" width="120" height="57" as="geometry" />
        </mxCell>
        <mxCell id="7iJvWOrBqwkIlt1M9rAo-31" value="Remove Songs From Specific Genre" style="ellipse;whiteSpace=wrap;html=1;" vertex="1" parent="1">
          <mxGeometry x="500" y="590" width="130" height="60" as="geometry" />
        </mxCell>
        <mxCell id="7iJvWOrBqwkIlt1M9rAo-32" value="" style="endArrow=none;html=1;rounded=0;exitX=0;exitY=0.3333333333333333;exitDx=0;exitDy=0;exitPerimeter=0;entryX=1;entryY=0.5;entryDx=0;entryDy=0;" edge="1" parent="1" source="7iJvWOrBqwkIlt1M9rAo-27" target="7iJvWOrBqwkIlt1M9rAo-30">
          <mxGeometry width="50" height="50" relative="1" as="geometry">
            <mxPoint x="60" y="240" as="sourcePoint" />
            <mxPoint x="180" y="201" as="targetPoint" />
          </mxGeometry>
        </mxCell>
        <mxCell id="7iJvWOrBqwkIlt1M9rAo-33" value="" style="endArrow=none;html=1;rounded=0;exitX=0;exitY=0.3333333333333333;exitDx=0;exitDy=0;exitPerimeter=0;entryX=1;entryY=0.5;entryDx=0;entryDy=0;" edge="1" parent="1" source="7iJvWOrBqwkIlt1M9rAo-27" target="7iJvWOrBqwkIlt1M9rAo-31">
          <mxGeometry width="50" height="50" relative="1" as="geometry">
            <mxPoint x="790" y="550" as="sourcePoint" />
            <mxPoint x="670" y="499" as="targetPoint" />
          </mxGeometry>
        </mxCell>
        <mxCell id="7iJvWOrBqwkIlt1M9rAo-35" value="Play Music From ChatRoom" style="ellipse;whiteSpace=wrap;html=1;" vertex="1" parent="1">
          <mxGeometry x="180" y="240" width="112" height="57" as="geometry" />
        </mxCell>
        <mxCell id="7iJvWOrBqwkIlt1M9rAo-36" value="" style="endArrow=none;html=1;rounded=0;exitX=0.5;exitY=0.5;exitDx=0;exitDy=0;exitPerimeter=0;entryX=0;entryY=0.5;entryDx=0;entryDy=0;" edge="1" parent="1" source="7iJvWOrBqwkIlt1M9rAo-26" target="7iJvWOrBqwkIlt1M9rAo-35">
          <mxGeometry width="50" height="50" relative="1" as="geometry">
            <mxPoint x="60" y="240" as="sourcePoint" />
            <mxPoint x="190" y="199" as="targetPoint" />
          </mxGeometry>
        </mxCell>
        <mxCell id="7iJvWOrBqwkIlt1M9rAo-37" value="Check if the user has enough messages" style="ellipse;whiteSpace=wrap;html=1;" vertex="1" parent="1">
          <mxGeometry x="400" y="217" width="120" height="67" as="geometry" />
        </mxCell>
        <mxCell id="7iJvWOrBqwkIlt1M9rAo-38" value="&amp;lt;&amp;lt;include&amp;gt;&amp;gt;" style="html=1;verticalAlign=bottom;labelBackgroundColor=none;endArrow=open;endFill=0;dashed=1;rounded=0;entryX=0;entryY=0.5;entryDx=0;entryDy=0;exitX=1;exitY=0.5;exitDx=0;exitDy=0;" edge="1" parent="1" source="7iJvWOrBqwkIlt1M9rAo-35" target="7iJvWOrBqwkIlt1M9rAo-37">
          <mxGeometry x="-0.1258" y="10" width="160" relative="1" as="geometry">
            <mxPoint x="571" y="273" as="sourcePoint" />
            <mxPoint x="711" y="235" as="targetPoint" />
            <mxPoint as="offset" />
          </mxGeometry>
        </mxCell>
        <mxCell id="7iJvWOrBqwkIlt1M9rAo-39" value="Play Random Music from Personal Playlist" style="ellipse;whiteSpace=wrap;html=1;" vertex="1" parent="1">
          <mxGeometry x="360" y="380" width="130" height="67" as="geometry" />
        </mxCell>
        <mxCell id="7iJvWOrBqwkIlt1M9rAo-40" value="&amp;lt;&amp;lt;extend&amp;gt;&amp;gt;" style="html=1;verticalAlign=bottom;labelBackgroundColor=none;endArrow=open;endFill=0;dashed=1;rounded=0;exitX=0;exitY=0;exitDx=0;exitDy=0;entryX=1;entryY=1;entryDx=0;entryDy=0;" edge="1" parent="1" source="7iJvWOrBqwkIlt1M9rAo-39" target="7iJvWOrBqwkIlt1M9rAo-35">
          <mxGeometry x="-0.179" y="-7" width="160" relative="1" as="geometry">
            <mxPoint x="340" y="480" as="sourcePoint" />
            <mxPoint x="500" y="480" as="targetPoint" />
            <mxPoint as="offset" />
          </mxGeometry>
        </mxCell>
        <mxCell id="7iJvWOrBqwkIlt1M9rAo-43" value="CHATWAVE" style="text;html=1;align=center;verticalAlign=middle;whiteSpace=wrap;rounded=0;fontSize=20;" vertex="1" parent="1">
          <mxGeometry x="387" y="110" width="60" height="30" as="geometry" />
        </mxCell>
        <mxCell id="7iJvWOrBqwkIlt1M9rAo-44" value="Play/Pause Music" style="ellipse;whiteSpace=wrap;html=1;" vertex="1" parent="1">
          <mxGeometry x="180" y="323" width="112" height="57" as="geometry" />
        </mxCell>
        <mxCell id="7iJvWOrBqwkIlt1M9rAo-45" value="Repeat Song/Playlist" style="ellipse;whiteSpace=wrap;html=1;" vertex="1" parent="1">
          <mxGeometry x="180" y="390" width="112" height="57" as="geometry" />
        </mxCell>
        <mxCell id="7iJvWOrBqwkIlt1M9rAo-46" value="Skip to Next Song" style="ellipse;whiteSpace=wrap;html=1;" vertex="1" parent="1">
          <mxGeometry x="180" y="470" width="112" height="57" as="geometry" />
        </mxCell>
        <mxCell id="7iJvWOrBqwkIlt1M9rAo-47" value="" style="endArrow=none;html=1;rounded=0;exitX=0.5;exitY=0.5;exitDx=0;exitDy=0;exitPerimeter=0;entryX=0;entryY=0.5;entryDx=0;entryDy=0;" edge="1" parent="1" source="7iJvWOrBqwkIlt1M9rAo-26" target="7iJvWOrBqwkIlt1M9rAo-44">
          <mxGeometry width="50" height="50" relative="1" as="geometry">
            <mxPoint x="20" y="265" as="sourcePoint" />
            <mxPoint x="190" y="279" as="targetPoint" />
          </mxGeometry>
        </mxCell>
        <mxCell id="7iJvWOrBqwkIlt1M9rAo-48" value="" style="endArrow=none;html=1;rounded=0;entryX=0;entryY=0.5;entryDx=0;entryDy=0;exitX=0.5;exitY=0.5;exitDx=0;exitDy=0;exitPerimeter=0;" edge="1" parent="1" source="7iJvWOrBqwkIlt1M9rAo-26" target="7iJvWOrBqwkIlt1M9rAo-45">
          <mxGeometry width="50" height="50" relative="1" as="geometry">
            <mxPoint x="20" y="260" as="sourcePoint" />
            <mxPoint x="200" y="289" as="targetPoint" />
          </mxGeometry>
        </mxCell>
        <mxCell id="7iJvWOrBqwkIlt1M9rAo-49" value="" style="endArrow=none;html=1;rounded=0;exitX=0.5;exitY=0.5;exitDx=0;exitDy=0;exitPerimeter=0;entryX=0;entryY=0;entryDx=0;entryDy=0;" edge="1" parent="1" source="7iJvWOrBqwkIlt1M9rAo-26" target="7iJvWOrBqwkIlt1M9rAo-46">
          <mxGeometry width="50" height="50" relative="1" as="geometry">
            <mxPoint x="40" y="285" as="sourcePoint" />
            <mxPoint x="210" y="299" as="targetPoint" />
          </mxGeometry>
        </mxCell>
      </root>
    </mxGraphModel>
  </diagram>
</mxfile>
